<svg id="图层_1" data-name="图层 1" xmlns="http://www.w3.org/2000/svg" viewBox="0 0 111.39 51.8"><defs><style>.cls-1{fill:#23faec;}.cls-2{fill:#2e71ea;}.cls-3{fill:#12aef3;}.cls-4{fill:#bd4dbf;}.cls-5{fill:#fe8735;}.cls-6{fill:#feb3cb;}.cls-7{fill:#308dec;}.cls-8{fill:#2de1ed;}.cls-9{fill:#2b9cec;}.cls-10{fill:#2bdced;}.cls-11{fill:#38c2ee;}.cls-12{fill:#41beef;}.cls-13{fill:#d0eefa;}.cls-14{fill:#d0f0fa;}.cls-15{fill:#bad0f8;}.cls-16{fill:#f9fcfe;}.cls-17{fill:#fef7f9;}.cls-18{fill:#f8fcfd;}.cls-19{fill:#fdfefe;}.cls-20{fill:#2d7eeb;}.cls-21{fill:#25f2ec;}.cls-22{fill:#26a0ec;}.cls-23{fill:#22c9ec;}.cls-24{fill:#239beb;}.cls-25{fill:#23cfec;}.cls-26{fill:#1ed2ec;}.cls-27{fill:#29d0ed;}.cls-28{fill:#2c9eec;}.cls-29{fill:#28d7ed;}.cls-30{fill:#15bbeb;}.cls-31{fill:#279fec;}.cls-32{fill:#2a9fec;}.cls-33{fill:#1cadec;}.cls-34{fill:#2e9cec;}.cls-35{fill:#eef9fd;}.cls-36{fill:#e8f7fc;}</style></defs><path class="cls-1" d="M17.2,8C27.3-2.8,42.8-2.7,54.7,8.3c.7.9.2,1.3-.6,1.7-2.2,0-3.1-2.1-4.8-3a31.15,31.15,0,0,0-7.7-3.4c-7.7-1.1-15-.6-21,5.2A4.47,4.47,0,0,1,17.9,10C16.9,9.5,16.7,8.9,17.2,8Z" transform="translate(-9.61 0.03)"/><path class="cls-2" d="M55.4,42.7c-7.1,7.8-15.9,10.8-26.3,8.1A23.09,23.09,0,0,1,14.6,40.7a1.19,1.19,0,0,1,.9-.5c1.7,0,2.6,1.3,3.7,2.3a22.44,22.44,0,0,0,11,5.7,18.5,18.5,0,0,0,11.4,0,18.61,18.61,0,0,0,10-5.4A4.19,4.19,0,0,1,54.8,41C55.7,41.3,56.1,41.8,55.4,42.7Z" transform="translate(-9.61 0.03)"/><path class="cls-3" d="M84,27.7v-.4c0-5.7.2-5.9,3.9-5.6,4.3.3,6.9,3.2,6.4,7.3a7.25,7.25,0,0,1-8.4,5.8c-.3-.1-.6-.1-.9-.2-1.2-.4-1-1.3-1-2.1C83.9,30.9,84,29.3,84,27.7Z" transform="translate(-9.61 0.03)"/><path class="cls-4" d="M115.8,28.3c2,1.3,4.6,1.6,3.2,3.8-1.1,1.8-3,.9-4.3-.1-1.8-1.5-2-3.6-1.3-5.7a4.08,4.08,0,0,1,3.9-2.9c1-.1,2.2.8,3.1-.7-2.3-2-4.7-1.2-6.7.1a5.91,5.91,0,0,0-2.5,7.1c.8,2.6,2.3,4.6,5.5,4.7,2.8.1,4.3-.5,4.3-3.8C120.8,27.3,118.9,28,115.8,28.3Z" transform="translate(-9.61 0.03)"/><path class="cls-5" d="M80.2,22.4c-1.5-.4-2.2-.3-2.5.2-1.8,3.4-3.5,4.3-5.5.1-.4-.9-1.3-1-2.1-.2.5,2.3,3.6,3.6,2.9,6.1-.6,2-2.4,3.8-3.9,6,3.6-.2,3.5-3.7,5.6-4.6,2,1.1,2,4.4,6,4.5C76.5,30.4,74.9,26.4,80.2,22.4Z" transform="translate(-9.61 0.03)"/><path class="cls-6" d="M97.4,34.8c.8-4.6,2.7-8.2,4.4-11.9.6-1.3,1.7-.5,2.2.5,1.3,3,2.4,6.1,3.7,9.2.2.6.5,1.2-.1,1.7s-1.1-.1-1.5-.6c-3.1-3.7-4.3-3.7-7.1.2C98.7,34.1,98.3,34.3,97.4,34.8Z" transform="translate(-9.61 0.03)"/><path class="cls-7" d="M55.4,42.7a1.34,1.34,0,0,0-.8-1.3c.3-3.5,3.2-5.9,3.7-9.3.3-1.3.7-2.6,1.1-3.9.5-1.1.3-2.5,1.8-3.2a6.18,6.18,0,0,1,.3,4.8C60.7,34.6,59.4,39.3,55.4,42.7Z" transform="translate(-9.61 0.03)"/><path class="cls-8" d="M53.9,9.6a1.44,1.44,0,0,0,.8-1.3A17,17,0,0,1,60.8,19c.2,1,.5,2.1.8,3.1a1.53,1.53,0,0,1-1.6.3A115.57,115.57,0,0,1,53.9,9.6Z" transform="translate(-9.61 0.03)"/><path class="cls-9" d="M16,40.5l-1.3.2a18.48,18.48,0,0,1-4.2-10.3c-.6-2.2-.2-4.5-.2-7.3,2.4,1.5,1.8,3.5,2.4,5a29.42,29.42,0,0,0,3.1,9.2A2.89,2.89,0,0,1,16,40.5Z" transform="translate(-9.61 0.03)"/><path class="cls-10" d="M17.2,8l.6,1.6c.7.7.2,1.4-.2,2a27.1,27.1,0,0,0-4,7.5c-.3.9-.8,1.8-2,1.8-1-.8-.6-1.7-.4-2.7A19.11,19.11,0,0,1,17.2,8Z" transform="translate(-9.61 0.03)"/><path class="cls-11" d="M11.1,18.2c.2.9-.1,1.9.9,2.5,1.4,2.8,1.7,5.5-.2,8.2-1.2-1.3-.2-3-1.4-4.4v6C9,26.3,9.6,22.2,11.1,18.2Z" transform="translate(-9.61 0.03)"/><path class="cls-12" d="M60,22.2l1.6-.1a10.76,10.76,0,0,1-.1,7.7c-.1-1.3-.2-2.6-.2-4-1.2.8-.1,2.3-1.3,3-1.7-2-1.3-4.1-.5-6.2Z" transform="translate(-9.61 0.03)"/><path class="cls-13" d="M53.9,9.6A29.08,29.08,0,0,1,60,22.2h-.2c-.5.6,0,2.2-1.6,1.4-1.8-3.7-1.6-8.3-5.4-11.4-.1,2.4-.1,4.7,0,7.1v8.2c-.1,3.9-.1,7.8,0,12.3,2.7-2.3,3.5-5.1,4.6-7.7.8-.8,1.3-.2,1.7.5-.4,3.5-2.6,6.1-4.4,8.9-3.7,3.3-7.2,6.8-12.5,7.6-.7.3-1,0-1.2-.6,1.1-2,3.3-2,5-2.9,2.1-1.1,2.9-2.2.9-4.1a20,20,0,0,1-2.7-3.1,127.51,127.51,0,0,0-9.7-11.2A127.63,127.63,0,0,0,25,16c-1.2-1.3-2.6-2.7-3-4.6a1.09,1.09,0,0,1,.9-1.1,3.68,3.68,0,0,1,2.2,1.4c3.6,4,7,8.1,10.6,12.1,4.4,5,8.5,10.2,13.3,15.3.1-4.9,0-9.5,0-14,.1-4.3-.2-8.6.2-12.7.3-.6-.7-.4-.2-.3.1,0,.1.1,0,.2a58.36,58.36,0,0,1-8.5,10.1,1.52,1.52,0,0,1-2-1.4c2.5-3.9,6.1-7,8.7-10.8,1.4-1.5.7-2.5-.8-3.5C44.6,5.5,42,5.6,40.7,3.5c.2-.6.4-1,1.1-.6C47,3.5,50.4,6.6,53.9,9.6Z" transform="translate(-9.61 0.03)"/><path class="cls-14" d="M42.1,2.9l-.9.7c-1,1.2-2.3.5-3.5.4A24,24,0,0,0,26.8,6c-2,.8-3.7,1.9-3.8,4.4l-.5.6c.5,4.4.2,8.8.3,13.2-.2,4.8,0,9.5-.1,14.7,2.9-3.2,5.4-6.2,7.8-9.4,1.7-.5,2.2.7,2.7,1.9-1.9,2.2-3.8,4.5-5.8,6.7-6.1,7-4.7,5.5,1.5,8.7.8.4,1.7.5,2,1.5-.2.6-.5.9-1.2.6-5.7-1-10-4.3-13.8-8.4-1.4-3.9-4-7.4-4.1-11.7.1-2.7.2-5.4.2-8.2A33.45,33.45,0,0,1,17.7,9.5C24.7,3.1,32.6.3,42.1,2.9Z" transform="translate(-9.61 0.03)"/><path class="cls-15" d="M29.8,48.9l.9-.7a21.14,21.14,0,0,1,10.6,0l.9.7A16.62,16.62,0,0,1,29.8,48.9Z" transform="translate(-9.61 0.03)"/><path class="cls-16" d="M87.9,23.6c-3.6.1-1,3.1-2.1,4.5,1.2,1.5-1.5,4.6,2.1,4.8,3,.1,4.2-2,4.2-4.8S90.7,23.5,87.9,23.6Z" transform="translate(-9.61 0.03)"/><path class="cls-17" d="M102.5,26.2c-.9,1-1.9,1.9-1.3,3.1.3.6,1.8.6,2.3,0C104.5,28,103.3,27.1,102.5,26.2Z" transform="translate(-9.61 0.03)"/><path class="cls-18" d="M59.1,32.4,58,31.7c-.9-2.4-.5-4.8-.1-7.2a2.36,2.36,0,0,1,.8-.9l1.2-1.5c.1,2.2.2,4.5.3,6.7A35.5,35.5,0,0,0,59.1,32.4Z" transform="translate(-9.61 0.03)"/><path class="cls-19" d="M39.1,20.5a1.91,1.91,0,0,0,1.5,1.6c2.3-.8,3.1-3.1,4.7-4.6,1-.9,1.8-2.4,3.3-1.9s.9,2.1.9,3.3c.1,2.1,0,4.2,0,6.3v9.5c0,.8.1,1.9-.9,2.2s-1.6-.5-2.2-1.1c-3.6-4-7-8.2-10.7-12.2-3.2-4.4-7.2-8.2-10.5-12.5-1.9-1.9-2-3.6.8-4.8,6-2.6,12.2-3.1,18.4-.5,1.8.7,3.9,1.5,3,4.2C44.9,13.7,41.3,16.6,39.1,20.5Z" transform="translate(-9.61 0.03)"/><path class="cls-20" d="M41.3,48.2a31.44,31.44,0,0,1-10.6,0,5.73,5.73,0,0,1-1.4-.4c-8.7-3.2-8.8-3.5-2.4-10.2a1.6,1.6,0,0,1,1.5-.2c.9,1.7-.4,2.8-1.2,3.9-1.2,1.5-.8,2.4.9,3,4.7,1.9,9.5,1.7,14.2.5,3.3-.8,3.4-1.6,1.6-4.5a3.86,3.86,0,0,1-.8-2c.3-.8.8-1.3,1.7-.7,1,1.1,2.1,2.1,3,3.2,2.6,3.2,2.6,3.4-1.3,5.3C44.8,47,43,47.5,41.3,48.2Z" transform="translate(-9.61 0.03)"/><path class="cls-21" d="M46.4,10.3c.9-1.3,1-2.2-.8-3.1a22,22,0,0,0-19.7,0c-3.2,1.5-.1,2.6.2,3.8-.2.6-.6,1.1-1.4.7L23,10.2c-1.3-1.5-1.5-2.6.7-3.9A24.89,24.89,0,0,1,41.2,3.6a49.73,49.73,0,0,1,6.7,2.8c2.5,1.3,2.4,2.6.3,4.1A1.52,1.52,0,0,1,46.4,10.3Z" transform="translate(-9.61 0.03)"/><path class="cls-22" d="M36,22.9l12.8,14V25.1a.93.93,0,0,1,1.3-.1l.1.1V41.8L35.1,23.9C34.8,23,35.2,22.8,36,22.9Z" transform="translate(-9.61 0.03)"/><path class="cls-23" d="M21.6,25.1c0-3.8-.1-7.7-.1-11.6,0-.9-.3-2,.9-2.5,3.8,5.5,9.1,9.8,12.6,15.5a1.84,1.84,0,0,1-1.6.5c-4.2-2.3-6.2-6.5-9.3-9.5-.6,3,.8,6.5-.9,9.8C21.3,27.7,22.7,25.5,21.6,25.1Z" transform="translate(-9.61 0.03)"/><path class="cls-24" d="M58.3,24.4c-.1,2.4.9,4.9-.4,7.3-.5,4.1-2.8,7.2-6.1,10.7V28.1a1.21,1.21,0,0,1,1.5-.1c1.4,2.1.6,4.4.8,6.5a24.46,24.46,0,0,0,2.2-7.1C56.9,26.3,56.5,24.6,58.3,24.4Z" transform="translate(-9.61 0.03)"/><path class="cls-25" d="M50.2,25.1H48.8V15.9c-2.7,1.2-3.6,3.6-5.3,5.1-.8.7-1.2,2.5-2.8,1.1,2.5-4.2,6.1-7.4,9.6-11.8V25.1Z" transform="translate(-9.61 0.03)"/><path class="cls-26" d="M58.3,24.4l-1.2,2.9c-2.2-2.5-.7-5.9-2.3-8.7-.8-1.3-1-.8-1.6,0a1.21,1.21,0,0,1-1.5-.2V9.7c4.7,4,6.2,8.8,6.8,14A1.85,1.85,0,0,1,58.3,24.4Z" transform="translate(-9.61 0.03)"/><path class="cls-27" d="M36,22.9l-.9,1A119.54,119.54,0,0,1,24.8,11.8l1.4-.7C29.5,14.9,33.3,18.5,36,22.9Z" transform="translate(-9.61 0.03)"/><path class="cls-28" d="M33.5,26.7l1.7-.1a67.73,67.73,0,0,1,9.6,11.1,1.34,1.34,0,0,0-1.3.8A25,25,0,0,1,33.5,26.7Z" transform="translate(-9.61 0.03)"/><path class="cls-29" d="M46.4,10.3l1.8.1c-3,3.4-5.3,7.5-9.2,10a1.72,1.72,0,0,1,.3-2.3C41.8,15.6,44.1,13,46.4,10.3Z" transform="translate(-9.61 0.03)"/><path class="cls-30" d="M51.8,18.5h1.3a9.21,9.21,0,0,1,0,9.6H51.7C51.8,24.9,51.8,21.7,51.8,18.5Z" transform="translate(-9.61 0.03)"/><path class="cls-19" d="M33.5,26.7l10,11.8c0,.1.1.2.1.3,4.3,5.2,4.1,6.2-2.8,7.5A22.51,22.51,0,0,1,27,45c-2.2-1-3-1.9-1-3.8a28.76,28.76,0,0,0,2.7-3.4c.6-2.5,2.7-4,4.1-5.9l-2.1-2.3c-2,2.1-3.7,4.5-5.8,6.6-.4.4-.9.9-1.5.8a1.37,1.37,0,0,1-1-1.7c.2-2.6-.7-5.3.5-7.9V15Z" transform="translate(-9.61 0.03)"/><path class="cls-26" d="M13,25.8c-.2-6.2,2.3-11.4,7.1-16.6V21.4a1.2,1.2,0,0,1-1.5.1c-1-1.1-.6-2.5-1-3.8-2.4,3-1.1,6.8-2.2,10C12.9,29.2,14.3,25.8,13,25.8Z" transform="translate(-9.61 0.03)"/><path class="cls-31" d="M23.1,27.3v9.2c2.3-1.6,3.4-3.6,5-5.2.8-.7,1-2.4,2.7-1.9-.1,3.1-2.9,4.4-4.4,6.5a64.35,64.35,0,0,1-4.8,5.6V25.1C22.7,25.5,22.3,26.8,23.1,27.3Z" transform="translate(-9.61 0.03)"/><path class="cls-32" d="M13,25.8c.5-.3,1.2-1.9,1.3.2a14.16,14.16,0,0,0,.4,2c2.3,1.3,1.1,4.3,3,5.9.5-.6.2-1.7,1-2.3a1.2,1.2,0,0,1,1.5.1V42.5C15.1,37.4,12.8,32.2,13,25.8Z" transform="translate(-9.61 0.03)"/><path class="cls-33" d="M20.1,31.7H18.6a11,11,0,0,1,0-10.3H20C20.1,24.9,20.1,28.3,20.1,31.7Z" transform="translate(-9.61 0.03)"/><path class="cls-34" d="M32.9,31.8c-.1,2.9-2.6,4.1-4.1,5.9l-1.9-.2C28.9,35.7,29.7,32.6,32.9,31.8Z" transform="translate(-9.61 0.03)"/><path class="cls-35" d="M53.2,28.1V18.5c.1-1.1.2-2.2.3-3.8C57,18.6,57,23,57.2,27.3a14.85,14.85,0,0,1-4,9.6Z" transform="translate(-9.61 0.03)"/><path class="cls-36" d="M18.7,21.4V31.7c-.1,1.6-.2,3.1-.3,5.4-2.6-2.9-3.2-6-3.8-9.1.1-4.6.2-9.1,3.7-13.7Z" transform="translate(-9.61 0.03)"/></svg>