<svg id="图层_1" data-name="图层 1" xmlns="http://www.w3.org/2000/svg" viewBox="0 0 121.26 48.68"><defs><style>.cls-1{fill:#23faec;}.cls-2{fill:#2e71ea;}.cls-3{fill:#308dec;}.cls-4{fill:#2de1ed;}.cls-5{fill:#2b9cec;}.cls-6{fill:#2bdced;}.cls-7{fill:#38c2ee;}.cls-8{fill:#41beef;}.cls-9{fill:#d0eefa;}.cls-10{fill:#d0f0fa;}.cls-11{fill:#bad0f8;}.cls-12{fill:#f8fcfd;}.cls-13{fill:#2d7eeb;}.cls-14{fill:#25f2ec;}.cls-15{fill:#26a0ec;}.cls-16{fill:#22c9ec;}.cls-17{fill:#239beb;}.cls-18{fill:#23cfec;}.cls-19{fill:#1ed2ec;}.cls-20{fill:#29d0ed;}.cls-21{fill:#2c9eec;}.cls-22{fill:#28d7ed;}.cls-23{fill:#15bbeb;}.cls-24{fill:#279fec;}.cls-25{fill:#2a9fec;}.cls-26{fill:#1cadec;}.cls-27{fill:#2e9cec;}.cls-28{fill:#eef9fd;}.cls-29{fill:#e8f7fc;}</style></defs><path class="cls-1" d="M7.57,8.21C17-1.94,31.5-1.85,42.62,8.49c.65.85.19,1.22-.56,1.6-2.06,0-2.9-2-4.49-2.82a29,29,0,0,0-7.2-3.2c-7.19-1-14-.56-19.63,4.89a4.15,4.15,0,0,1-2.52,1.13C7.29,9.62,7.1,9.05,7.57,8.21Z" transform="translate(-0.47 -0.67)"/><path class="cls-2" d="M43.27,40.82C36.64,48.15,28.41,51,18.69,48.43A21.35,21.35,0,0,1,5.14,38.94,1,1,0,0,1,6,38.47c1.59,0,2.43,1.22,3.46,2.16A20.94,20.94,0,0,0,19.72,46a17.3,17.3,0,0,0,10.65,0,17.36,17.36,0,0,0,9.35-5.08,3.81,3.81,0,0,1,3-1.69C43.55,39.5,43.93,40,43.27,40.82Z" transform="translate(-0.47 -0.67)"/><path class="cls-3" d="M43.27,40.82a1.25,1.25,0,0,0-.74-1.22c.28-3.29,3-5.55,3.46-8.74.28-1.23.65-2.45,1-3.67.47-1,.28-2.35,1.69-3A5.89,5.89,0,0,1,49,28.69C48.23,33.21,47,37.62,43.27,40.82Z" transform="translate(-0.47 -0.67)"/><path class="cls-4" d="M41.87,9.71a1.26,1.26,0,0,0,.75-1.22,16,16,0,0,1,5.7,10.06c.19.93.47,2,.75,2.91a1.47,1.47,0,0,1-1.5.28A111.08,111.08,0,0,1,41.87,9.71Z" transform="translate(-0.47 -0.67)"/><path class="cls-5" d="M6.44,38.75l-1.21.19A17.44,17.44,0,0,1,1.3,29.26C.74,27.19,1.12,25,1.12,22.4c2.24,1.41,1.68,3.29,2.24,4.7a28.61,28.61,0,0,0,2.9,8.64A2.73,2.73,0,0,1,6.44,38.75Z" transform="translate(-0.47 -0.67)"/><path class="cls-6" d="M7.57,8.21l.56,1.5c.65.66.18,1.32-.19,1.88A25.54,25.54,0,0,0,4.2,18.64c-.28.84-.75,1.69-1.87,1.69-.93-.75-.56-1.6-.37-2.54A18.57,18.57,0,0,1,7.57,8.21Z" transform="translate(-0.47 -0.67)"/><path class="cls-7" d="M1.86,17.79c.19.85-.09,1.79.85,2.35,1.3,2.63,1.59,5.17-.19,7.71C1.4,26.63,2.33,25,1.21,23.71v5.64C-.1,25.41.46,21.55,1.86,17.79Z" transform="translate(-0.47 -0.67)"/><path class="cls-8" d="M47.57,21.55l1.5-.09A10.18,10.18,0,0,1,49,28.69c-.1-1.22-.19-2.44-.19-3.75-1.12.75-.09,2.16-1.22,2.81-1.58-1.87-1.21-3.85-.46-5.82Z" transform="translate(-0.47 -0.67)"/><path class="cls-9" d="M41.87,9.71a27.78,27.78,0,0,1,5.7,11.84h-.18c-.47.57,0,2.07-1.5,1.32-1.68-3.48-1.49-7.8-5-10.72-.09,2.26-.09,4.42,0,6.68v7.7c-.09,3.67-.09,7.33,0,11.56,2.53-2.16,3.28-4.79,4.3-7.23.75-.76,1.22-.19,1.59.47-.37,3.28-2.43,5.73-4.11,8.36-3.46,3.1-6.73,6.39-11.68,7.14-.66.28-.94,0-1.13-.56,1-1.88,3.09-1.88,4.68-2.73,2-1,2.71-2.07.84-3.85a18.34,18.34,0,0,1-2.52-2.91,123,123,0,0,0-9.07-10.53,106.21,106.21,0,0,0-8.88-10.52c-1.12-1.23-2.43-2.54-2.81-4.33a1.1,1.1,0,0,1,.84-1A3.4,3.4,0,0,1,15,11.69c3.37,3.75,6.54,7.61,9.91,11.37,4.11,4.69,8,9.58,12.43,14.37.1-4.6,0-8.92,0-13.15.1-4-.18-8.08.19-11.94.28-.56-.66-.37-.19-.28.1,0,.1.09,0,.19a51.55,51.55,0,0,1-7.94,9.49,1.38,1.38,0,0,1-1.75-.83l0-.11c0-.09-.09-.28-.09-.38,2.33-3.66,5.7-6.57,8.13-10.14,1.31-1.41.65-2.35-.75-3.29-1.68-1.13-4.11-1-5.33-3,.19-.56.38-.94,1-.56C35.42,4,38.6,6.89,41.87,9.71Z" transform="translate(-0.47 -0.67)"/><path class="cls-10" d="M30.84,3.42,30,4.07c-.93,1.13-2.15.47-3.27.38A22.29,22.29,0,0,0,16.54,6.33c-1.87.75-3.46,1.78-3.55,4.13l-.47.57c.47,4.13.19,8.27.28,12.4-.19,4.51,0,8.93-.09,13.82,2.71-3,5.05-5.83,7.29-8.84,1.59-.47,2.06.66,2.52,1.79-1.77,2.07-3.55,4.23-5.42,6.29-5.7,6.58-4.39,5.17,1.4,8.18.75.38,1.59.47,1.87,1.41-.18.56-.46.85-1.12.56-5.33-.94-9.35-4-12.9-7.89C5,35.08,2.61,31.8,2.52,27.75c.09-2.53.19-5.07.19-7.7A31.52,31.52,0,0,1,8,9.62C14.58,3.6,22,1,30.84,3.42Z" transform="translate(-0.47 -0.67)"/><path class="cls-11" d="M19.34,46.64l.85-.65a19.54,19.54,0,0,1,9.9,0l.85.65A15.42,15.42,0,0,1,19.34,46.64Z" transform="translate(-0.47 -0.67)"/><path class="cls-12" d="M46.73,31.14l-1-.66c-.84-2.26-.46-4.51-.09-6.77a2.17,2.17,0,0,1,.75-.84l1.12-1.41c.09,2.07.19,4.23.28,6.29C47.39,28.88,47,30,46.73,31.14Z" transform="translate(-0.47 -0.67)"/><path class="cls-13" d="M30.09,46a29.38,29.38,0,0,1-9.9,0,5.46,5.46,0,0,1-1.31-.38c-8.14-3-8.23-3.29-2.25-9.59A1.51,1.51,0,0,1,18,35.84c.84,1.59-.38,2.63-1.13,3.66-1.12,1.41-.74,2.26.85,2.82A20.69,20.69,0,0,0,31,42.79c3.08-.75,3.18-1.5,1.49-4.23a3.56,3.56,0,0,1-.74-1.88c.28-.75.74-1.22,1.59-.66.93,1,2,2,2.8,3,2.43,3,2.43,3.2-1.21,5A52.37,52.37,0,0,1,30.09,46Z" transform="translate(-0.47 -0.67)"/><path class="cls-14" d="M34.86,10.37c.84-1.22.94-2.07-.75-2.91a20.44,20.44,0,0,0-18.41,0c-3,1.41-.09,2.44.19,3.57-.19.56-.56,1-1.31.66L13,10.28c-1.22-1.41-1.4-2.45.65-3.67A23.12,23.12,0,0,1,30,4.07,52.08,52.08,0,0,1,36.26,6.7c2.34,1.23,2.25,2.45.28,3.86A1.28,1.28,0,0,1,34.86,10.37Z" transform="translate(-0.47 -0.67)"/><path class="cls-15" d="M25.14,22.21l12,13.16V24.28a.87.87,0,0,1,1.21-.1l.09.1V40L24.3,23.15C24,22.3,24.39,22.12,25.14,22.21Z" transform="translate(-0.47 -0.67)"/><path class="cls-16" d="M11.68,24.28c0-3.57-.09-7.24-.09-10.9,0-.85-.28-1.88.84-2.35,3.55,5.17,8.5,9.21,11.78,14.56a1.71,1.71,0,0,1-1.5.47C18.78,23.9,16.91,20,14,17.14c-.56,2.81.74,6.1-.84,9.2C11.4,26.72,12.71,24.65,11.68,24.28Z" transform="translate(-0.47 -0.67)"/><path class="cls-17" d="M46,23.62c-.1,2.26.84,4.6-.38,6.86-.47,3.85-2.62,6.77-5.7,10.05V27.1a1.12,1.12,0,0,1,1.4-.1c1.31,2,.56,4.14.75,6.11a23.17,23.17,0,0,0,2.06-6.67C44.68,25.41,44.3,23.81,46,23.62Z" transform="translate(-0.47 -0.67)"/><path class="cls-18" d="M38.41,24.28h-1.3V15.63c-2.53,1.13-3.37,3.39-5,4.79-.75.66-1.12,2.35-2.62,1,2.34-3.95,5.71-7,9-11.09V24.28Z" transform="translate(-0.47 -0.67)"/><path class="cls-19" d="M46,23.62l-1.13,2.72c-2-2.34-.65-5.54-2.15-8.17-.74-1.22-.93-.75-1.49,0a1.12,1.12,0,0,1-1.4-.19V9.81c4.39,3.75,5.79,8.27,6.35,13.15A1.39,1.39,0,0,1,46,23.62Z" transform="translate(-0.47 -0.67)"/><path class="cls-20" d="M25.14,22.21l-.84.94a112.35,112.35,0,0,1-9.63-11.37L16,11.12C19.06,14.69,22.62,18.08,25.14,22.21Z" transform="translate(-0.47 -0.67)"/><path class="cls-21" d="M22.8,25.78l1.59-.09a63.39,63.39,0,0,1,9,10.43,1.25,1.25,0,0,0-1.22.75A23.11,23.11,0,0,1,22.8,25.78Z" transform="translate(-0.47 -0.67)"/><path class="cls-22" d="M34.86,10.37l1.68.09c-2.8,3.2-4.95,7.05-8.6,9.4a1.63,1.63,0,0,1,.28-2.16C30.56,15.35,32.71,12.91,34.86,10.37Z" transform="translate(-0.47 -0.67)"/><path class="cls-23" d="M39.91,18.08h1.21a8.66,8.66,0,0,1,0,9h-1.3C39.91,24.09,39.91,21.08,39.91,18.08Z" transform="translate(-0.47 -0.67)"/><path class="cls-19" d="M3.64,24.94c-.19-5.83,2.15-10.72,6.64-15.6V20.8a1.1,1.1,0,0,1-1.4.09c-.94-1-.57-2.34-.94-3.57-2.24,2.82-1,6.39-2.06,9.4C3.55,28.13,4.86,24.94,3.64,24.94Z" transform="translate(-0.47 -0.67)"/><path class="cls-24" d="M13.08,26.34V35c2.15-1.5,3.18-3.38,4.68-4.89.74-.65.93-2.25,2.52-1.78-.09,2.91-2.71,4.13-4.11,6.11a62.6,62.6,0,0,1-4.49,5.26V24.28C12.71,24.65,12.33,25.88,13.08,26.34Z" transform="translate(-0.47 -0.67)"/><path class="cls-25" d="M3.64,24.94c.47-.29,1.12-1.79,1.22.18A13,13,0,0,0,5.23,27c2.15,1.22,1,4,2.8,5.55C8.5,32,8.22,31,9,30.39a1.1,1.1,0,0,1,1.4.09V40.63C5.6,35.84,3.45,31,3.64,24.94Z" transform="translate(-0.47 -0.67)"/><path class="cls-26" d="M10.28,30.48H8.88a10.36,10.36,0,0,1,0-9.68h1.3C10.28,24.09,10.28,27.28,10.28,30.48Z" transform="translate(-0.47 -0.67)"/><path class="cls-27" d="M22.24,30.57c-.09,2.73-2.43,3.86-3.83,5.55l-1.78-.19C18.5,34.24,19.25,31.33,22.24,30.57Z" transform="translate(-0.47 -0.67)"/><path class="cls-28" d="M41.22,27.1v-9c.09-1,.18-2.07.28-3.58,3.27,3.67,3.27,7.8,3.46,11.84a14,14,0,0,1-3.74,9Z" transform="translate(-0.47 -0.67)"/><path class="cls-29" d="M9,20.8v9.68c-.09,1.5-.19,2.91-.28,5.07-2.43-2.72-3-5.63-3.55-8.55.09-4.32.18-8.55,3.45-12.87Z" transform="translate(-0.47 -0.67)"/><path d="M59.81,30.2a6.46,6.46,0,0,1-2.73.51c-2.44,0-4.78-1.56-4.78-5.15a4.93,4.93,0,0,1,5.12-5.27,5.23,5.23,0,0,1,2.35.44l-.24.6a4.87,4.87,0,0,0-2.1-.43C54.7,20.9,53,22.67,53,25.57s1.57,4.52,4.27,4.52a5.14,5.14,0,0,0,2.28-.47Z" transform="translate(-0.47 -0.67)"/><path d="M66.93,28.8c0,.64,0,1.2.06,1.75h-.66l0-1.27h0a2.78,2.78,0,0,1-2.47,1.44c-.92,0-2.45-.45-2.45-3.17v-4.2H62v4c0,1.57.49,2.7,1.92,2.7a2.37,2.37,0,0,0,2.12-1.47,2.65,2.65,0,0,0,.14-.79V23.35h.71Z" transform="translate(-0.47 -0.67)"/><path d="M69.06,29.61a3.17,3.17,0,0,0,1.62.5c1.13,0,1.67-.62,1.67-1.37s-.47-1.22-1.51-1.63S69,26,69,25.14a2,2,0,0,1,2.22-1.95,2.86,2.86,0,0,1,1.6.46l-.29.58a2.36,2.36,0,0,0-1.42-.44A1.27,1.27,0,0,0,69.71,25c0,.75.51,1.07,1.5,1.48,1.16.46,1.85,1,1.85,2.13s-1,2.06-2.43,2.06a3.51,3.51,0,0,1-1.83-.5Z" transform="translate(-0.47 -0.67)"/><path d="M75.94,21.27v2.08h2v.58h-2v4.68c0,.92.29,1.49,1.06,1.49a2.69,2.69,0,0,0,.82-.11l.08.55a2.52,2.52,0,0,1-1,.17,1.51,1.51,0,0,1-1.24-.51,2.6,2.6,0,0,1-.44-1.71V23.93H74v-.58h1.22V21.5Z" transform="translate(-0.47 -0.67)"/><path d="M85.65,26.89a3.49,3.49,0,0,1-3.45,3.83c-1.86,0-3.3-1.45-3.3-3.71,0-2.46,1.62-3.82,3.4-3.82C84.29,23.19,85.65,24.68,85.65,26.89Zm-6,.09a2.87,2.87,0,0,0,2.63,3.15c1.5,0,2.68-1.36,2.68-3.21,0-1.32-.75-3.14-2.64-3.14S79.62,25.42,79.62,27Z" transform="translate(-0.47 -0.67)"/><path d="M87.48,25.08c0-.66,0-1.16-.06-1.73h.66l0,1.28h0a2.51,2.51,0,0,1,2.34-1.44,2.17,2.17,0,0,1,2.06,1.58h0a3,3,0,0,1,.74-1,2.43,2.43,0,0,1,1.72-.6c.7,0,2.35.4,2.35,3.12v4.24h-.71V26.38c0-1.61-.63-2.58-1.88-2.58a2.09,2.09,0,0,0-1.89,1.43,2.24,2.24,0,0,0-.13.71v4.61h-.71v-4.5c0-1.29-.62-2.25-1.78-2.25a2.34,2.34,0,0,0-2.11,2.32v4.43h-.71Z" transform="translate(-0.47 -0.67)"/><path d="M99.77,20.58a11.79,11.79,0,0,1,2.19-.21,3.63,3.63,0,0,1,2.72.85,2.55,2.55,0,0,1,.7,1.8,2.66,2.66,0,0,1-2,2.63v0A2.58,2.58,0,0,1,105,27.83a12.57,12.57,0,0,0,.75,2.72H105a13.84,13.84,0,0,1-.64-2.46c-.31-1.45-.94-2.11-2.27-2.17h-1.58v4.63h-.71Zm.71,4.76h1.61c1.56,0,2.57-.87,2.57-2.2,0-1.56-1.14-2.18-2.72-2.18a7,7,0,0,0-1.46.13Z" transform="translate(-0.47 -0.67)"/><path d="M107.35,20.56a11.69,11.69,0,0,1,2.16-.19,3.78,3.78,0,0,1,2.67.85,2.66,2.66,0,0,1,.78,2,2.88,2.88,0,0,1-.7,2,3.9,3.9,0,0,1-3,1.13,4.28,4.28,0,0,1-1.23-.12v4.32h-.71Zm.71,5a4.41,4.41,0,0,0,1.28.15c1.81,0,2.9-.88,2.9-2.48s-1.15-2.3-2.76-2.3a7.11,7.11,0,0,0-1.42.12Z" transform="translate(-0.47 -0.67)"/><path d="M121.73,30.2a6.46,6.46,0,0,1-2.73.51c-2.44,0-4.78-1.56-4.78-5.15a4.93,4.93,0,0,1,5.12-5.27,5.23,5.23,0,0,1,2.35.44l-.23.6a5,5,0,0,0-2.11-.43c-2.73,0-4.39,1.77-4.39,4.67s1.57,4.52,4.27,4.52a5.14,5.14,0,0,0,2.28-.47Z" transform="translate(-0.47 -0.67)"/></svg>