<svg id="图层_1" data-name="图层 1" xmlns="http://www.w3.org/2000/svg" viewBox="0 0 52.65 51.8"><defs><style>.cls-1{fill:#23faec;}.cls-2{fill:#2e71ea;}.cls-3{fill:#308dec;}.cls-4{fill:#2de1ed;}.cls-5{fill:#2b9cec;}.cls-6{fill:#2bdced;}.cls-7{fill:#38c2ee;}.cls-8{fill:#41beef;}.cls-9{fill:#d0eefa;}.cls-10{fill:#d0f0fa;}.cls-11{fill:#bad0f8;}.cls-12{fill:#f8fcfd;}.cls-13{fill:#2d7eeb;}.cls-14{fill:#25f2ec;}.cls-15{fill:#26a0ec;}.cls-16{fill:#22c9ec;}.cls-17{fill:#239beb;}.cls-18{fill:#23cfec;}.cls-19{fill:#1ed2ec;}.cls-20{fill:#29d0ed;}.cls-21{fill:#2c9eec;}.cls-22{fill:#28d7ed;}.cls-23{fill:#15bbeb;}.cls-24{fill:#279fec;}.cls-25{fill:#2a9fec;}.cls-26{fill:#1cadec;}.cls-27{fill:#2e9cec;}.cls-28{fill:#eef9fd;}.cls-29{fill:#e8f7fc;}</style></defs><path class="cls-1" d="M7.6,8C17.7-2.8,33.2-2.7,45.1,8.3c.7.9.2,1.3-.6,1.7-2.2,0-3.1-2.1-4.8-3A31.15,31.15,0,0,0,32,3.6C24.3,2.5,17,3,11,8.8A4.47,4.47,0,0,1,8.3,10C7.3,9.5,7.1,8.9,7.6,8Z" transform="translate(-0.01 0.03)"/><path class="cls-2" d="M45.8,42.7c-7.1,7.8-15.9,10.8-26.3,8.1A22.83,22.83,0,0,1,5,40.7a1.05,1.05,0,0,1,.9-.5c1.7,0,2.6,1.3,3.7,2.3a22.44,22.44,0,0,0,11,5.7,18.5,18.5,0,0,0,11.4,0,18.61,18.61,0,0,0,10-5.4A4.07,4.07,0,0,1,45.2,41C46.1,41.3,46.5,41.8,45.8,42.7Z" transform="translate(-0.01 0.03)"/><path class="cls-3" d="M45.8,42.7a1.34,1.34,0,0,0-.8-1.3c.3-3.5,3.2-5.9,3.7-9.3.3-1.3.7-2.6,1.1-3.9.5-1.1.3-2.5,1.8-3.2a6.16,6.16,0,0,1,.3,4.8C51.1,34.6,49.8,39.3,45.8,42.7Z" transform="translate(-0.01 0.03)"/><path class="cls-4" d="M44.3,9.6a1.34,1.34,0,0,0,.8-1.3A17,17,0,0,1,51.2,19c.2,1,.5,2.1.8,3.1a1.57,1.57,0,0,1-1.6.3A115.57,115.57,0,0,1,44.3,9.6Z" transform="translate(-0.01 0.03)"/><path class="cls-5" d="M6.4,40.5l-1.3.2A18.48,18.48,0,0,1,.9,30.4C.3,28.2.7,25.9.7,23.1c2.4,1.5,1.8,3.5,2.4,5a30.3,30.3,0,0,0,3.1,9.2A2.88,2.88,0,0,1,6.4,40.5Z" transform="translate(-0.01 0.03)"/><path class="cls-6" d="M7.6,8l.6,1.6c.7.7.2,1.4-.2,2a27.1,27.1,0,0,0-4,7.5c-.3.9-.8,1.8-2,1.8-1-.8-.6-1.7-.4-2.7A19.75,19.75,0,0,1,7.6,8Z" transform="translate(-0.01 0.03)"/><path class="cls-7" d="M1.5,18.2c.2.9-.1,1.9.9,2.5,1.4,2.8,1.7,5.5-.2,8.2C1,27.6,2,25.9.8,24.5v6C-.6,26.3,0,22.2,1.5,18.2Z" transform="translate(-0.01 0.03)"/><path class="cls-8" d="M50.4,22.2l1.6-.1a10.76,10.76,0,0,1-.1,7.7c-.1-1.3-.2-2.6-.2-4-1.2.8-.1,2.3-1.3,3-1.7-2-1.3-4.1-.5-6.2Z" transform="translate(-0.01 0.03)"/><path class="cls-9" d="M44.3,9.6a29.64,29.64,0,0,1,6.1,12.6h-.2c-.5.6,0,2.2-1.6,1.4-1.8-3.7-1.6-8.3-5.4-11.4-.1,2.4-.1,4.7,0,7.1v8.2c-.1,3.9-.1,7.8,0,12.3,2.7-2.3,3.5-5.1,4.6-7.7.8-.8,1.3-.2,1.7.5-.4,3.5-2.6,6.1-4.4,8.9-3.7,3.3-7.2,6.8-12.5,7.6-.7.3-1,0-1.2-.6,1.1-2,3.3-2,5-2.9,2.1-1.1,2.9-2.2.9-4.1a20,20,0,0,1-2.7-3.1,129.8,129.8,0,0,0-9.7-11.2A112.45,112.45,0,0,0,15.4,16c-1.2-1.3-2.6-2.7-3-4.6a1.17,1.17,0,0,1,.9-1.1,3.68,3.68,0,0,1,2.2,1.4c3.6,4,7,8.1,10.6,12.1,4.4,5,8.5,10.2,13.3,15.3.1-4.9,0-9.5,0-14,.1-4.3-.2-8.6.2-12.7.3-.6-.7-.4-.2-.3.1,0,.1.1,0,.2a54.85,54.85,0,0,1-8.5,10.1,1.46,1.46,0,0,1-1.9-1c0-.1-.1-.3-.1-.4,2.5-3.9,6.1-7,8.7-10.8,1.4-1.5.7-2.5-.8-3.5C35,5.5,32.4,5.6,31.1,3.5c.2-.6.4-1,1.1-.6C37.4,3.5,40.8,6.6,44.3,9.6Z" transform="translate(-0.01 0.03)"/><path class="cls-10" d="M32.5,2.9l-.9.7c-1,1.2-2.3.5-3.5.4A24,24,0,0,0,17.2,6c-2,.8-3.7,1.9-3.8,4.4l-.5.6c.5,4.4.2,8.8.3,13.2-.2,4.8,0,9.5-.1,14.7,2.9-3.2,5.4-6.2,7.8-9.4,1.7-.5,2.2.7,2.7,1.9-1.9,2.2-3.8,4.5-5.8,6.7-6.1,7-4.7,5.5,1.5,8.7.8.4,1.7.5,2,1.5-.2.6-.5.9-1.2.6-5.7-1-10-4.3-13.8-8.4-1.4-3.9-4-7.4-4.1-11.7.1-2.7.2-5.4.2-8.2A33.45,33.45,0,0,1,8.1,9.5C15.1,3.1,23,.3,32.5,2.9Z" transform="translate(-0.01 0.03)"/><path class="cls-11" d="M20.2,48.9l.9-.7a21.14,21.14,0,0,1,10.6,0l.9.7A16.62,16.62,0,0,1,20.2,48.9Z" transform="translate(-0.01 0.03)"/><path class="cls-12" d="M49.5,32.4l-1.1-.7c-.9-2.4-.5-4.8-.1-7.2a2.36,2.36,0,0,1,.8-.9l1.2-1.5c.1,2.2.2,4.5.3,6.7C50.2,30,49.8,31.2,49.5,32.4Z" transform="translate(-0.01 0.03)"/><path class="cls-13" d="M31.7,48.2a31.44,31.44,0,0,1-10.6,0,5.73,5.73,0,0,1-1.4-.4c-8.7-3.2-8.8-3.5-2.4-10.2a1.6,1.6,0,0,1,1.5-.2c.9,1.7-.4,2.8-1.2,3.9-1.2,1.5-.8,2.4.9,3,4.7,1.9,9.5,1.7,14.2.5,3.3-.8,3.4-1.6,1.6-4.5a3.86,3.86,0,0,1-.8-2c.3-.8.8-1.3,1.7-.7,1,1.1,2.1,2.1,3,3.2,2.6,3.2,2.6,3.4-1.3,5.3C35.2,47,33.4,47.5,31.7,48.2Z" transform="translate(-0.01 0.03)"/><path class="cls-14" d="M36.8,10.3c.9-1.3,1-2.2-.8-3.1a22,22,0,0,0-19.7,0c-3.2,1.5-.1,2.6.2,3.8-.2.6-.6,1.1-1.4.7l-1.7-1.5c-1.3-1.5-1.5-2.6.7-3.9A24.81,24.81,0,0,1,31.6,3.6a55.79,55.79,0,0,1,6.7,2.8c2.5,1.3,2.4,2.6.3,4.1A1.38,1.38,0,0,1,36.8,10.3Z" transform="translate(-0.01 0.03)"/><path class="cls-15" d="M26.4,22.9l12.8,14V25.1a.93.93,0,0,1,1.3-.1l.1.1V41.8L25.5,23.9C25.2,23,25.6,22.8,26.4,22.9Z" transform="translate(-0.01 0.03)"/><path class="cls-16" d="M12,25.1c0-3.8-.1-7.7-.1-11.6,0-.9-.3-2,.9-2.5,3.8,5.5,9.1,9.8,12.6,15.5a1.84,1.84,0,0,1-1.6.5c-4.2-2.3-6.2-6.5-9.3-9.5-.6,3,.8,6.5-.9,9.8C11.7,27.7,13.1,25.5,12,25.1Z" transform="translate(-0.01 0.03)"/><path class="cls-17" d="M48.7,24.4c-.1,2.4.9,4.9-.4,7.3-.5,4.1-2.8,7.2-6.1,10.7V28.1a1.2,1.2,0,0,1,1.5-.1c1.4,2.1.6,4.4.8,6.5a24.46,24.46,0,0,0,2.2-7.1C47.3,26.3,46.9,24.6,48.7,24.4Z" transform="translate(-0.01 0.03)"/><path class="cls-18" d="M40.6,25.1H39.2V15.9c-2.7,1.2-3.6,3.6-5.3,5.1-.8.7-1.2,2.5-2.8,1.1,2.5-4.2,6.1-7.4,9.6-11.8V25.1Z" transform="translate(-0.01 0.03)"/><path class="cls-19" d="M48.7,24.4l-1.2,2.9c-2.2-2.5-.7-5.9-2.3-8.7-.8-1.3-1-.8-1.6,0a1.21,1.21,0,0,1-1.5-.2V9.7c4.7,4,6.2,8.8,6.8,14A1.45,1.45,0,0,1,48.7,24.4Z" transform="translate(-0.01 0.03)"/><path class="cls-20" d="M26.4,22.9l-.9,1A119.54,119.54,0,0,1,15.2,11.8l1.4-.7C19.9,14.9,23.7,18.5,26.4,22.9Z" transform="translate(-0.01 0.03)"/><path class="cls-21" d="M23.9,26.7l1.7-.1a67.73,67.73,0,0,1,9.6,11.1,1.34,1.34,0,0,0-1.3.8A24.58,24.58,0,0,1,23.9,26.7Z" transform="translate(-0.01 0.03)"/><path class="cls-22" d="M36.8,10.3l1.8.1c-3,3.4-5.3,7.5-9.2,10a1.72,1.72,0,0,1,.3-2.3C32.2,15.6,34.5,13,36.8,10.3Z" transform="translate(-0.01 0.03)"/><path class="cls-23" d="M42.2,18.5h1.3a9.21,9.21,0,0,1,0,9.6H42.1C42.2,24.9,42.2,21.7,42.2,18.5Z" transform="translate(-0.01 0.03)"/><path class="cls-19" d="M3.4,25.8c-.2-6.2,2.3-11.4,7.1-16.6V21.4a1.2,1.2,0,0,1-1.5.1c-1-1.1-.6-2.5-1-3.8-2.4,3-1.1,6.8-2.2,10C3.3,29.2,4.7,25.8,3.4,25.8Z" transform="translate(-0.01 0.03)"/><path class="cls-24" d="M13.5,27.3v9.2c2.3-1.6,3.4-3.6,5-5.2.8-.7,1-2.4,2.7-1.9-.1,3.1-2.9,4.4-4.4,6.5A64.35,64.35,0,0,1,12,41.5V25.1C13.1,25.5,12.7,26.8,13.5,27.3Z" transform="translate(-0.01 0.03)"/><path class="cls-25" d="M3.4,25.8c.5-.3,1.2-1.9,1.3.2a14.16,14.16,0,0,0,.4,2c2.3,1.3,1.1,4.3,3,5.9.5-.6.2-1.7,1-2.3a1.2,1.2,0,0,1,1.5.1V42.5C5.5,37.4,3.2,32.2,3.4,25.8Z" transform="translate(-0.01 0.03)"/><path class="cls-26" d="M10.5,31.7H9A11,11,0,0,1,9,21.4h1.4C10.5,24.9,10.5,28.3,10.5,31.7Z" transform="translate(-0.01 0.03)"/><path class="cls-27" d="M23.3,31.8c-.1,2.9-2.6,4.1-4.1,5.9l-1.9-.2C19.3,35.7,20.1,32.6,23.3,31.8Z" transform="translate(-0.01 0.03)"/><path class="cls-28" d="M43.6,28.1V18.5c.1-1.1.2-2.2.3-3.8,3.5,3.9,3.5,8.3,3.7,12.6a14.85,14.85,0,0,1-4,9.6Z" transform="translate(-0.01 0.03)"/><path class="cls-29" d="M9.1,21.4V31.7c-.1,1.6-.2,3.1-.3,5.4C6.2,34.2,5.6,31.1,5,28c.1-4.6.2-9.1,3.7-13.7Z" transform="translate(-0.01 0.03)"/></svg>