<svg id="图层_1" data-name="图层 1" xmlns="http://www.w3.org/2000/svg" viewBox="0 0 51.9 13.42"><defs><style>.cls-1{fill:#12aef3;}.cls-2{fill:#bd4dbf;}.cls-3{fill:#fe8735;}.cls-4{fill:#feb3cb;}.cls-5{fill:#f9fcfe;}.cls-6{fill:#fef7f9;}</style></defs><path class="cls-1" d="M74.4,27.7v-.4c0-5.7.2-5.9,3.9-5.6,4.3.3,6.9,3.2,6.4,7.3a7.25,7.25,0,0,1-8.4,5.8c-.3-.1-.6-.1-.9-.2-1.2-.4-1-1.3-1-2.1C74.3,30.9,74.4,29.3,74.4,27.7Z" transform="translate(-59.5 -21.49)"/><path class="cls-2" d="M106.2,28.3c2,1.3,4.6,1.6,3.2,3.8-1.1,1.8-3,.9-4.3-.1-1.8-1.5-2-3.6-1.3-5.7a4.08,4.08,0,0,1,3.9-2.9c1-.1,2.2.8,3.1-.7-2.3-2-4.7-1.2-6.7.1a5.91,5.91,0,0,0-2.5,7.1c.8,2.6,2.3,4.6,5.5,4.7,2.8.1,4.3-.5,4.3-3.8C111.2,27.3,109.3,28,106.2,28.3Z" transform="translate(-59.5 -21.49)"/><path class="cls-3" d="M70.6,22.4c-1.5-.4-2.2-.3-2.5.2-1.8,3.4-3.5,4.3-5.5.1-.4-.9-1.3-1-2.1-.2.5,2.3,3.6,3.6,2.9,6.1-.6,2-2.4,3.8-3.9,6,3.6-.2,3.5-3.7,5.6-4.6,2,1.1,2,4.4,6,4.5C66.9,30.4,65.3,26.4,70.6,22.4Z" transform="translate(-59.5 -21.49)"/><path class="cls-4" d="M87.8,34.8c.8-4.6,2.7-8.2,4.4-11.9.6-1.3,1.7-.5,2.2.5,1.3,3,2.4,6.1,3.7,9.2.2.6.5,1.2-.1,1.7s-1.1-.1-1.5-.6c-3.1-3.7-4.3-3.7-7.1.2C89.1,34.1,88.7,34.3,87.8,34.8Z" transform="translate(-59.5 -21.49)"/><path class="cls-5" d="M78.3,23.6c-3.6.1-1,3.1-2.1,4.5,1.2,1.5-1.5,4.6,2.1,4.8,3,.1,4.2-2,4.2-4.8S81.1,23.5,78.3,23.6Z" transform="translate(-59.5 -21.49)"/><path class="cls-6" d="M92.9,26.2c-.9,1-1.9,1.9-1.3,3.1.3.6,1.8.6,2.3,0C94.9,28,93.7,27.1,92.9,26.2Z" transform="translate(-59.5 -21.49)"/></svg>